<svg xmlns="http://www.w3.org/2000/svg" xmlns:xlink="http://www.w3.org/1999/xlink" width="500" zoomAndPan="magnify" viewBox="0 0 375 374.999991" height="500" preserveAspectRatio="xMidYMid meet" version="1.0"><defs><clipPath id="d164514f84"><path d="M 122 178 L 268 178 L 268 278.648438 L 122 278.648438 Z M 122 178 " clip-rule="nonzero"/></clipPath><clipPath id="b353abbc3d"><path d="M 130 96.398438 L 260 96.398438 L 260 133 L 130 133 Z M 130 96.398438 " clip-rule="nonzero"/></clipPath><clipPath id="012a8c3bc5"><path d="M 103.855469 141 L 286.105469 141 L 286.105469 170 L 103.855469 170 Z M 103.855469 141 " clip-rule="nonzero"/></clipPath></defs><path fill="#363231" d="M 222.335938 219.417969 L 226.894531 219.417969 C 227.789062 219.417969 228.679688 219.332031 229.558594 219.15625 C 230.441406 218.980469 231.296875 218.722656 232.125 218.378906 C 232.953125 218.035156 233.742188 217.613281 234.488281 217.113281 C 235.234375 216.617188 235.925781 216.050781 236.558594 215.414062 C 237.191406 214.78125 237.761719 214.089844 238.257812 213.34375 C 238.757812 212.597656 239.179688 211.808594 239.523438 210.980469 C 239.863281 210.152344 240.125 209.296875 240.300781 208.417969 C 240.476562 207.535156 240.5625 206.648438 240.5625 205.75 C 240.5625 205.449219 240.53125 205.15625 240.476562 204.859375 C 240.417969 204.566406 240.328125 204.28125 240.214844 204.007812 C 240.101562 203.730469 239.960938 203.46875 239.792969 203.21875 C 239.628906 202.96875 239.4375 202.738281 239.226562 202.527344 C 239.015625 202.316406 238.785156 202.128906 238.539062 201.960938 C 238.289062 201.796875 238.027344 201.65625 237.75 201.539062 C 237.472656 201.425781 237.1875 201.339844 236.894531 201.28125 C 236.601562 201.222656 236.304688 201.195312 236.007812 201.195312 L 213.226562 201.195312 C 212.925781 201.195312 212.628906 201.222656 212.335938 201.28125 C 212.042969 201.339844 211.757812 201.425781 211.480469 201.539062 C 211.203125 201.65625 210.941406 201.796875 210.695312 201.960938 C 210.445312 202.128906 210.214844 202.316406 210.003906 202.527344 C 209.792969 202.738281 209.601562 202.96875 209.4375 203.21875 C 209.269531 203.46875 209.128906 203.730469 209.015625 204.007812 C 208.902344 204.28125 208.8125 204.566406 208.757812 204.859375 C 208.699219 205.15625 208.667969 205.449219 208.667969 205.75 C 208.667969 206.648438 208.757812 207.535156 208.929688 208.417969 C 209.105469 209.296875 209.367188 210.152344 209.707031 210.980469 C 210.050781 211.808594 210.472656 212.597656 210.972656 213.34375 C 211.46875 214.089844 212.039062 214.78125 212.671875 215.414062 C 213.304688 216.050781 213.996094 216.617188 214.742188 217.113281 C 215.488281 217.613281 216.277344 218.035156 217.105469 218.378906 C 217.933594 218.722656 218.789062 218.980469 219.671875 219.15625 C 220.550781 219.332031 221.441406 219.417969 222.335938 219.417969 Z M 222.335938 219.417969 " fill-opacity="1" fill-rule="nonzero"/><path fill="#363231" d="M 163.105469 219.417969 L 167.664062 219.417969 C 168.558594 219.417969 169.449219 219.332031 170.328125 219.15625 C 171.210938 218.980469 172.0625 218.722656 172.894531 218.378906 C 173.722656 218.035156 174.511719 217.613281 175.257812 217.113281 C 176.003906 216.617188 176.691406 216.050781 177.328125 215.414062 C 177.960938 214.78125 178.527344 214.089844 179.027344 213.34375 C 179.527344 212.597656 179.945312 211.808594 180.289062 210.980469 C 180.632812 210.152344 180.894531 209.296875 181.066406 208.417969 C 181.242188 207.535156 181.332031 206.648438 181.332031 205.75 C 181.332031 205.449219 181.300781 205.15625 181.242188 204.859375 C 181.183594 204.566406 181.097656 204.28125 180.984375 204.007812 C 180.871094 203.730469 180.730469 203.46875 180.5625 203.21875 C 180.398438 202.96875 180.207031 202.738281 179.996094 202.527344 C 179.785156 202.316406 179.554688 202.128906 179.304688 201.960938 C 179.058594 201.796875 178.792969 201.65625 178.519531 201.539062 C 178.242188 201.425781 177.957031 201.339844 177.664062 201.28125 C 177.371094 201.222656 177.074219 201.195312 176.773438 201.195312 L 153.992188 201.195312 C 153.695312 201.195312 153.398438 201.222656 153.105469 201.28125 C 152.8125 201.339844 152.527344 201.425781 152.25 201.539062 C 151.972656 201.65625 151.710938 201.796875 151.460938 201.960938 C 151.214844 202.128906 150.984375 202.316406 150.773438 202.527344 C 150.558594 202.738281 150.371094 202.96875 150.203125 203.21875 C 150.039062 203.46875 149.898438 203.730469 149.785156 204.007812 C 149.667969 204.28125 149.582031 204.566406 149.523438 204.859375 C 149.464844 205.15625 149.4375 205.449219 149.4375 205.75 C 149.4375 206.648438 149.523438 207.535156 149.699219 208.417969 C 149.875 209.296875 150.132812 210.152344 150.476562 210.980469 C 150.820312 211.808594 151.242188 212.597656 151.742188 213.34375 C 152.238281 214.089844 152.804688 214.78125 153.441406 215.414062 C 154.074219 216.050781 154.765625 216.617188 155.511719 217.113281 C 156.257812 217.613281 157.046875 218.035156 157.875 218.378906 C 158.703125 218.722656 159.558594 218.980469 160.4375 219.15625 C 161.320312 219.332031 162.207031 219.417969 163.105469 219.417969 Z M 163.105469 219.417969 " fill-opacity="1" fill-rule="nonzero"/><g clip-path="url(#d164514f84)"><path fill="#363231" d="M 122.101562 205.75 C 122.101562 245.925781 154.820312 278.648438 195 278.648438 C 235.175781 278.648438 267.898438 245.925781 267.898438 205.75 L 267.898438 178.414062 L 122.101562 178.414062 Z M 204.113281 251.3125 L 185.886719 251.3125 C 185.589844 251.3125 185.292969 251.28125 185 251.226562 C 184.703125 251.167969 184.421875 251.078125 184.144531 250.964844 C 183.867188 250.851562 183.605469 250.710938 183.355469 250.542969 C 183.105469 250.378906 182.878906 250.1875 182.664062 249.976562 C 182.453125 249.765625 182.265625 249.535156 182.097656 249.289062 C 181.933594 249.039062 181.792969 248.777344 181.679688 248.5 C 181.5625 248.222656 181.476562 247.9375 181.417969 247.644531 C 181.359375 247.351562 181.332031 247.054688 181.332031 246.757812 C 181.332031 246.457031 181.359375 246.160156 181.417969 245.867188 C 181.476562 245.574219 181.5625 245.289062 181.679688 245.011719 C 181.792969 244.734375 181.933594 244.472656 182.097656 244.226562 C 182.265625 243.976562 182.453125 243.746094 182.664062 243.535156 C 182.878906 243.324219 183.105469 243.132812 183.355469 242.96875 C 183.605469 242.800781 183.867188 242.660156 184.144531 242.546875 C 184.421875 242.433594 184.703125 242.347656 185 242.289062 C 185.292969 242.230469 185.589844 242.199219 185.886719 242.199219 L 204.113281 242.199219 C 204.410156 242.199219 204.707031 242.230469 205 242.289062 C 205.292969 242.347656 205.578125 242.433594 205.855469 242.546875 C 206.132812 242.660156 206.394531 242.800781 206.644531 242.96875 C 206.890625 243.132812 207.121094 243.324219 207.332031 243.535156 C 207.546875 243.746094 207.734375 243.976562 207.902344 244.226562 C 208.066406 244.472656 208.207031 244.734375 208.320312 245.011719 C 208.4375 245.289062 208.523438 245.574219 208.582031 245.867188 C 208.640625 246.160156 208.667969 246.457031 208.667969 246.757812 C 208.667969 247.054688 208.640625 247.351562 208.582031 247.644531 C 208.523438 247.9375 208.4375 248.222656 208.320312 248.5 C 208.207031 248.777344 208.066406 249.039062 207.902344 249.289062 C 207.734375 249.535156 207.546875 249.765625 207.332031 249.976562 C 207.121094 250.1875 206.890625 250.378906 206.644531 250.542969 C 206.394531 250.710938 206.132812 250.851562 205.855469 250.964844 C 205.578125 251.078125 205.292969 251.167969 205 251.226562 C 204.707031 251.28125 204.410156 251.3125 204.113281 251.3125 Z M 153.992188 192.082031 L 176.773438 192.082031 C 177.476562 192.082031 178.171875 192.140625 178.863281 192.25 C 179.554688 192.359375 180.234375 192.519531 180.902344 192.734375 C 181.570312 192.949219 182.214844 193.210938 182.84375 193.523438 C 183.46875 193.839844 184.066406 194.199219 184.640625 194.601562 C 185.210938 195.007812 185.746094 195.453125 186.25 195.941406 C 186.753906 196.429688 187.214844 196.953125 187.636719 197.511719 C 188.058594 198.074219 188.433594 198.660156 188.765625 199.277344 C 189.097656 199.894531 189.382812 200.53125 189.613281 201.195312 L 200.382812 201.195312 C 200.617188 200.53125 200.902344 199.894531 201.230469 199.277344 C 201.5625 198.660156 201.941406 198.074219 202.363281 197.511719 C 202.785156 196.953125 203.246094 196.429688 203.75 195.941406 C 204.253906 195.453125 204.789062 195.007812 205.359375 194.601562 C 205.933594 194.199219 206.53125 193.839844 207.15625 193.523438 C 207.785156 193.210938 208.429688 192.949219 209.097656 192.734375 C 209.765625 192.519531 210.445312 192.359375 211.136719 192.25 C 211.828125 192.140625 212.523438 192.082031 213.226562 192.082031 L 236.007812 192.082031 C 236.902344 192.082031 237.792969 192.167969 238.671875 192.34375 C 239.554688 192.519531 240.40625 192.777344 241.238281 193.121094 C 242.066406 193.464844 242.855469 193.886719 243.601562 194.382812 C 244.347656 194.882812 245.035156 195.449219 245.671875 196.085938 C 246.304688 196.71875 246.871094 197.410156 247.371094 198.15625 C 247.871094 198.902344 248.289062 199.691406 248.632812 200.519531 C 248.976562 201.347656 249.238281 202.203125 249.410156 203.082031 C 249.585938 203.964844 249.675781 204.851562 249.675781 205.75 C 249.671875 206.496094 249.636719 207.238281 249.5625 207.980469 C 249.488281 208.722656 249.375 209.460938 249.230469 210.191406 C 249.082031 210.921875 248.902344 211.644531 248.683594 212.359375 C 248.46875 213.070312 248.214844 213.773438 247.929688 214.460938 C 247.644531 215.148438 247.324219 215.824219 246.972656 216.480469 C 246.621094 217.136719 246.238281 217.777344 245.824219 218.398438 C 245.40625 219.015625 244.964844 219.613281 244.492188 220.191406 C 244.019531 220.765625 243.515625 221.320312 242.988281 221.847656 C 242.460938 222.375 241.910156 222.875 241.335938 223.347656 C 240.757812 223.820312 240.160156 224.265625 239.539062 224.679688 C 238.921875 225.09375 238.28125 225.476562 237.625 225.828125 C 236.96875 226.179688 236.292969 226.5 235.605469 226.785156 C 234.917969 227.070312 234.214844 227.324219 233.5 227.539062 C 232.789062 227.757812 232.066406 227.941406 231.335938 228.085938 C 230.605469 228.234375 229.867188 228.34375 229.125 228.417969 C 228.382812 228.492188 227.640625 228.53125 226.894531 228.53125 L 222.335938 228.53125 C 221.035156 228.53125 219.738281 228.421875 218.457031 228.199219 C 217.171875 227.976562 215.914062 227.648438 214.6875 227.210938 C 213.460938 226.773438 212.277344 226.234375 211.144531 225.59375 C 210.007812 224.953125 208.9375 224.222656 207.925781 223.398438 C 206.917969 222.574219 205.984375 221.667969 205.128906 220.683594 C 204.277344 219.699219 203.511719 218.652344 202.835938 217.535156 C 202.164062 216.421875 201.589844 215.257812 201.113281 214.042969 C 200.640625 212.828125 200.273438 211.582031 200.011719 210.304688 L 189.988281 210.304688 C 189.726562 211.582031 189.359375 212.828125 188.886719 214.042969 C 188.410156 215.253906 187.835938 216.417969 187.164062 217.535156 C 186.488281 218.648438 185.726562 219.699219 184.871094 220.683594 C 184.015625 221.667969 183.085938 222.570312 182.074219 223.394531 C 181.066406 224.21875 179.992188 224.953125 178.859375 225.59375 C 177.722656 226.234375 176.539062 226.769531 175.3125 227.207031 C 174.085938 227.644531 172.828125 227.976562 171.542969 228.199219 C 170.261719 228.421875 168.964844 228.53125 167.664062 228.53125 L 163.105469 228.53125 C 162.359375 228.53125 161.617188 228.492188 160.875 228.417969 C 160.132812 228.34375 159.394531 228.234375 158.664062 228.085938 C 157.933594 227.941406 157.210938 227.757812 156.496094 227.539062 C 155.785156 227.324219 155.082031 227.070312 154.394531 226.785156 C 153.707031 226.5 153.03125 226.179688 152.375 225.828125 C 151.71875 225.476562 151.078125 225.09375 150.460938 224.679688 C 149.839844 224.265625 149.242188 223.820312 148.664062 223.347656 C 148.089844 222.875 147.535156 222.375 147.007812 221.847656 C 146.480469 221.320312 145.980469 220.765625 145.507812 220.191406 C 145.035156 219.613281 144.589844 219.015625 144.175781 218.398438 C 143.761719 217.777344 143.378906 217.136719 143.027344 216.480469 C 142.675781 215.824219 142.355469 215.148438 142.070312 214.460938 C 141.785156 213.773438 141.53125 213.070312 141.316406 212.359375 C 141.097656 211.644531 140.914062 210.921875 140.769531 210.191406 C 140.621094 209.460938 140.511719 208.722656 140.4375 207.980469 C 140.363281 207.238281 140.324219 206.496094 140.324219 205.75 C 140.324219 204.851562 140.414062 203.964844 140.585938 203.082031 C 140.761719 202.203125 141.023438 201.347656 141.363281 200.519531 C 141.707031 199.691406 142.128906 198.902344 142.628906 198.15625 C 143.125 197.410156 143.695312 196.71875 144.328125 196.085938 C 144.960938 195.449219 145.652344 194.882812 146.398438 194.382812 C 147.144531 193.886719 147.933594 193.464844 148.761719 193.121094 C 149.59375 192.777344 150.445312 192.519531 151.328125 192.34375 C 152.207031 192.167969 153.097656 192.082031 153.992188 192.082031 Z M 153.992188 192.082031 " fill-opacity="1" fill-rule="nonzero"/></g><g clip-path="url(#b353abbc3d)"><path fill="#363231" d="M 249.550781 99.835938 C 249.421875 99.347656 249.21875 98.890625 248.941406 98.464844 C 248.660156 98.042969 248.320312 97.675781 247.917969 97.363281 C 247.519531 97.054688 247.078125 96.816406 246.597656 96.652344 C 246.117188 96.484375 245.625 96.402344 245.117188 96.398438 L 208.667969 96.398438 C 207.949219 96.398438 207.269531 96.554688 206.628906 96.875 C 205.988281 97.199219 205.453125 97.644531 205.023438 98.222656 L 195 111.601562 L 184.976562 98.222656 C 184.546875 97.644531 184.011719 97.199219 183.371094 96.875 C 182.730469 96.554688 182.046875 96.398438 181.332031 96.398438 L 144.882812 96.398438 C 144.375 96.402344 143.878906 96.484375 143.402344 96.652344 C 142.921875 96.816406 142.480469 97.054688 142.078125 97.363281 C 141.679688 97.675781 141.339844 98.042969 141.058594 98.464844 C 140.78125 98.890625 140.578125 99.347656 140.449219 99.835938 L 130.964844 132.851562 L 259.574219 132.851562 Z M 249.550781 99.835938 " fill-opacity="1" fill-rule="nonzero"/></g><g clip-path="url(#012a8c3bc5)"><path fill="#363231" d="M 281.570312 160.1875 L 266.90625 160.1875 L 262.347656 141.960938 L 128.355469 141.960938 L 123.09375 160.1875 L 108.429688 160.1875 C 108.132812 160.1875 107.835938 160.214844 107.542969 160.273438 C 107.25 160.332031 106.964844 160.417969 106.6875 160.535156 C 106.410156 160.648438 106.148438 160.789062 105.898438 160.957031 C 105.652344 161.121094 105.421875 161.308594 105.210938 161.523438 C 104.996094 161.734375 104.808594 161.964844 104.640625 162.210938 C 104.476562 162.460938 104.335938 162.722656 104.222656 163 C 104.105469 163.277344 104.019531 163.5625 103.960938 163.855469 C 103.902344 164.148438 103.875 164.445312 103.875 164.742188 C 103.875 165.042969 103.902344 165.339844 103.960938 165.632812 C 104.019531 165.925781 104.105469 166.210938 104.222656 166.488281 C 104.335938 166.761719 104.476562 167.027344 104.640625 167.273438 C 104.808594 167.523438 104.996094 167.753906 105.210938 167.964844 C 105.421875 168.175781 105.652344 168.367188 105.898438 168.53125 C 106.148438 168.699219 106.410156 168.839844 106.6875 168.953125 C 106.964844 169.066406 107.25 169.152344 107.542969 169.210938 C 107.835938 169.269531 108.132812 169.300781 108.429688 169.300781 L 281.570312 169.300781 C 281.867188 169.300781 282.164062 169.269531 282.457031 169.210938 C 282.75 169.152344 283.035156 169.066406 283.3125 168.953125 C 283.589844 168.839844 283.851562 168.699219 284.101562 168.53125 C 284.347656 168.367188 284.578125 168.175781 284.789062 167.964844 C 285 167.753906 285.191406 167.523438 285.355469 167.273438 C 285.523438 167.027344 285.664062 166.761719 285.777344 166.488281 C 285.890625 166.210938 285.980469 165.925781 286.039062 165.632812 C 286.09375 165.339844 286.125 165.042969 286.125 164.742188 C 286.125 164.445312 286.09375 164.148438 286.039062 163.855469 C 285.980469 163.5625 285.890625 163.277344 285.777344 163 C 285.664062 162.722656 285.523438 162.460938 285.355469 162.210938 C 285.191406 161.964844 285 161.734375 284.789062 161.523438 C 284.578125 161.308594 284.347656 161.121094 284.101562 160.957031 C 283.851562 160.789062 283.589844 160.648438 283.3125 160.535156 C 283.035156 160.417969 282.75 160.332031 282.457031 160.273438 C 282.164062 160.214844 281.867188 160.1875 281.570312 160.1875 Z M 281.570312 160.1875 " fill-opacity="1" fill-rule="nonzero"/></g></svg>